<svg width="16" height="16" viewBox="0 0 16 16" fill="none" xmlns="http://www.w3.org/2000/svg">
<g clip-path="url(#clip0_1_2)">
<path d="M15.418 2.65792L13.3425 0.582473C12.915 0.047296 11.6065 -0.403036 10.621 0.582473L1.12809 10.0427C0.984509 10.1863 0.91598 10.3723 0.92577 10.5518L0.0414224 15.1791C-0.0956352 15.7078 0.429752 16.0471 0.788712 15.9949L5.58573 15.042C5.72278 15.042 5.82395 14.9735 5.92511 14.8724L15.418 5.41538C16.1685 4.66483 16.1685 3.40847 15.418 2.65792ZM11.5738 1.50272C11.7794 1.2645 12.1873 1.2645 12.4256 1.50272L12.9901 2.05747L3.53639 11.5112L2.55414 10.5191L11.5738 1.50272ZM2.0157 11.8799L4.11725 13.9815L1.50337 14.4971L2.0157 11.8799ZM14.501 4.42661L5.46825 13.4594L4.486 12.4673L13.9495 3.00382L14.4977 3.54226C14.798 3.86206 14.6576 4.26671 14.501 4.42661Z" fill="black"/>
</g>
<defs>
<clipPath id="clip0_1_2">
<rect width="16" height="16" fill="white"/>
</clipPath>
</defs>
</svg>
